<svg xmlns="http://www.w3.org/2000/svg" viewBox="0 0 100 100" role="img" aria-label="Binero">
  <rect width="100" height="100" rx="20" fill="#ffffff"/>
  <rect x="0.5" y="0.5" width="99" height="99" rx="19.5" fill="none" stroke="rgba(111,197,155,0.3)"/>
  <g>
    <rect x="18" y="18" width="14" height="14" rx="4" fill="#1D1D1F"/>
    <rect x="36" y="18" width="14" height="14" rx="4" fill="#6FC59B"/>
    <rect x="54" y="18" width="14" height="14" rx="4" fill="#1D1D1F"/>
    <rect x="18" y="36" width="14" height="14" rx="4" fill="#6FC59B"/>
    <rect x="36" y="36" width="14" height="14" rx="4" fill="#1D1D1F"/>
    <rect x="54" y="36" width="14" height="14" rx="4" fill="#EDEDED"/>
    <rect x="18" y="54" width="14" height="14" rx="4" fill="#EDEDED"/>
    <rect x="36" y="54" width="14" height="14" rx="4" fill="#6FC59B"/>
    <rect x="54" y="54" width="14" height="14" rx="4" fill="#1D1D1F"/>
    <rect x="18" y="72" width="14" height="10" rx="4" fill="#1D1D1F" opacity="0.15"/>
    <rect x="36" y="72" width="14" height="10" rx="4" fill="#1D1D1F" opacity="0.15"/>
    <rect x="54" y="72" width="14" height="10" rx="4" fill="#1D1D1F" opacity="0.15"/>
  </g>
</svg>
